<svg xmlns="http://www.w3.org/2000/svg" viewBox="0 0 450 450" width="450" height="450">
    <clipPath id="frame1">
      <path d="M211.928 30.256c-103.49 2.507-162.69 50.685-177.601 144.536-10.286 85.047 17.22 149.859 82.522 194.436 80.671 33.822 144.356 35.542 191.055 5.162 50.523-38.622 90.605-75.197 95.08-186.693-6.609-104.974-70.294-157.454-191.056-157.44Z" />
    </clipPath>
    <clipPath id="frame2">
      <path d="M177.638 64.252c-103.49 2.506-117.373 49.77-132.284 143.622-10.286 85.047 44.306 95.265 109.607 139.843 80.671 33.821 146.057 37.94 192.756 7.559 50.522-38.622 33.32-88.82 37.795-200.315-6.609-104.975-87.112-90.723-207.874-90.71Z" />
    </clipPath>
    <clipPath id="frame3" clipPathUnits="objectBoundingBox">
      <path d="M264.567 34.016C161.077 36.522 101.84 151.818 86.93 245.669c-10.286 85.047 21.629 83.927 86.93 128.504 80.67 33.822 146.056 41.72 192.755 11.339 50.523-38.622 44.659-47.245 49.134-158.74-6.608-104.975-30.419-192.77-151.18-192.756Z" />
    </clipPath>
    <clipPath id="frame4" clipPathUnits="objectBoundingBox">
      <path d="M188.977 30.236c-103.49 2.506-19.105 76.228-34.016 170.079-10.286 85.046-46.403 129.281 18.897 173.858 80.672 33.822 108.262-11.194 154.961-41.575 50.523-38.621 93.793-58.583 98.268-170.078-6.609-104.974-117.348-132.297-238.11-132.284Z" />
    </clipPath>
    <clipPath id="frame5" clipPathUnits="objectBoundingBox">
      <path d="M253.228 90.709c-103.36 5.742-162.727-29.6-177.637 64.252-30.237 166.299 37.795 139.842 132.283 132.283 98.268-15.118 100.703 45.499 147.402 15.118 50.522-38.621 82.454-73.701 86.929-185.197C435.596 12.191 321.26 86.93 253.228 90.71Z" />
    </clipPath>
  </svg>